<svg xmlns="http://www.w3.org/2000/svg" width="1290" height="2796" viewBox="0 0 1290 2796">
<rect width="100%" height="100%" fill="#000000"/>
<g transform="translate(645 1398) scale(0.62)">
<path transform="translate(-36.0 0)" fill="#FF4D22" fill-opacity="0.8" fill-rule="evenodd" d="M -340.0 0.0 a 340.0 340.0 0 1 0 680.0 0 a 340.0 340.0 0 1 0 -680.0 0 Z M -77.99999999999999 -169.0 a 78.0 78.0 0 1 0 156.0 0 a 78.0 78.0 0 1 0 -156.0 0 Z M 82.72855125388094 -52.22387204936611 a 78.0 78.0 0 1 0 156.0 0 a 78.0 78.0 0 1 0 -156.0 0 Z M 21.33570763742796 136.72387204936612 a 78.0 78.0 0 1 0 156.0 0 a 78.0 78.0 0 1 0 -156.0 0 Z M -177.33570763742796 136.72387204936612 a 78.0 78.0 0 1 0 156.0 0 a 78.0 78.0 0 1 0 -156.0 0 Z M -238.72855125388097 -52.22387204936609 a 78.0 78.0 0 1 0 156.0 0 a 78.0 78.0 0 1 0 -156.0 0 Z"/>
<path transform="translate(36.0 0)" fill="#8010E8" fill-opacity="0.8" fill-rule="evenodd" d="M -340.0 0.0 a 340.0 340.0 0 1 0 680.0 0 a 340.0 340.0 0 1 0 -680.0 0 Z M -77.99999999999999 -169.0 a 78.0 78.0 0 1 0 156.0 0 a 78.0 78.0 0 1 0 -156.0 0 Z M 82.72855125388094 -52.22387204936611 a 78.0 78.0 0 1 0 156.0 0 a 78.0 78.0 0 1 0 -156.0 0 Z M 21.33570763742796 136.72387204936612 a 78.0 78.0 0 1 0 156.0 0 a 78.0 78.0 0 1 0 -156.0 0 Z M -177.33570763742796 136.72387204936612 a 78.0 78.0 0 1 0 156.0 0 a 78.0 78.0 0 1 0 -156.0 0 Z M -238.72855125388097 -52.22387204936609 a 78.0 78.0 0 1 0 156.0 0 a 78.0 78.0 0 1 0 -156.0 0 Z"/>
<path transform="translate(0.0 0)" fill="#FFAA32" fill-opacity="1.0" fill-rule="evenodd" d="M -340.0 0.0 a 340.0 340.0 0 1 0 680.0 0 a 340.0 340.0 0 1 0 -680.0 0 Z M -77.99999999999999 -169.0 a 78.0 78.0 0 1 0 156.0 0 a 78.0 78.0 0 1 0 -156.0 0 Z M 82.72855125388094 -52.22387204936611 a 78.0 78.0 0 1 0 156.0 0 a 78.0 78.0 0 1 0 -156.0 0 Z M 21.33570763742796 136.72387204936612 a 78.0 78.0 0 1 0 156.0 0 a 78.0 78.0 0 1 0 -156.0 0 Z M -177.33570763742796 136.72387204936612 a 78.0 78.0 0 1 0 156.0 0 a 78.0 78.0 0 1 0 -156.0 0 Z M -238.72855125388097 -52.22387204936609 a 78.0 78.0 0 1 0 156.0 0 a 78.0 78.0 0 1 0 -156.0 0 Z"/>
</g>
</svg>